<?xml version="1.0" encoding="UTF-8" standalone="no"?><svg xmlns:svg="http://www.w3.org/2000/svg" xmlns="http://www.w3.org/2000/svg" version="1.1" style="overflow:visible" viewBox="-240 -44 480 82" height="328px" width="1920px"><rect fill-opacity="0" fill="rgb(0,0,0)" height="82" width="480" y="-44" x="-240" /><svg version="1.1" y="-253" x="-362" viewBox="-250 -250 500 500" height="500px" width="500px" style="overflow:visible"><g transform="rotate(0,0,0)" stroke-linejoin="round" fill="#fff"><path stroke-linecap="round" stroke-linejoin="round" stroke-width="8" stroke-opacity="1" stroke="rgb(136,136,136)" fill="none" d="m-129.430296-9.494093c6.868878 14.290379 11.333915 33.783922 24.804927 33.783922c21.265813 0 20.087902-48.579659 41.353716-48.579659c21.265823 0 20.087922 48.579668 41.353745 48.579658c21.265813-0.00001 20.087892-48.579649 41.353706-48.579659c21.265823-0.00001 20.087922 48.579658 41.353745 48.579658c21.265813 0 20.087902-48.579659 41.353716-48.579659c15.016804 0 18.842175 24.223973 27.28172 38.460521" /></g></svg><svg version="1.1" y="-251" x="-113" viewBox="-250 -250 500 500" height="500px" width="500px" style="overflow:visible"><g transform="rotate(0,0,0)" stroke-linejoin="round" fill="#fff"><path stroke-linecap="round" stroke-linejoin="round" stroke-width="8" stroke-opacity="1" stroke="rgb(136,136,136)" fill="none" d="m-129.430296-9.494093c6.868878 14.290379 11.333915 33.783922 24.804927 33.783922c21.265813 0 20.087902-48.579659 41.353716-48.579659c21.265823 0 20.087922 48.579668 41.353745 48.579658c21.265813-0.00001 20.087892-48.579649 41.353706-48.579659c21.265823-0.00001 20.087922 48.579658 41.353745 48.579658c21.265813 0 20.087902-48.579659 41.353716-48.579659c15.016804 0 18.842175 24.223973 27.28172 38.460521" /></g></svg></svg>